# xmcd CD database file
#
# Track frame offsets:
#	150
#	39981
#	82374
#	111087
#	140809
#	175942
#	210452
#	250786
#
# Disc length: 3860 seconds
#
# Revision: 0
# Processed by: cddbd v1.5.1PL0 Copyright (c) Steve Scherf et al.
# Submitted via: CDex 1.51
#
DISCID=6f0f1208
DTITLE=Alec Haavik - Rocks
DYEAR=2004
DGENRE=Jazz
TTITLE0=Make It Happen
TTITLE1=Ebay
TTITLE2=Cold Rainy Night
TTITLE3=Hermeto
TTITLE4=LIfe of Leisure
TTITLE5=Walking on the Moon/Giant Steps
TTITLE6=Beta Tester
TTITLE7=Freezer Burn
EXTD=YEAR: 2004
EXTT0=
EXTT1=
EXTT2=
EXTT3=
EXTT4=
EXTT5=
EXTT6=
EXTT7=
PLAYORDER=
